<?xml version="1.0" encoding="utf-8"?>
<!-- Generator: Adobe Illustrator 23.0.1, SVG Export Plug-In . SVG Version: 6.00 Build 0)  -->
<svg version="1.1" id="Layer_1" xmlns="http://www.w3.org/2000/svg" xmlns:xlink="http://www.w3.org/1999/xlink" x="0px" y="0px"
	 viewBox="0 0 360 360" style="enable-background:new 0 0 360 360;" xml:space="preserve">
<style type="text/css">
	.st0{opacity:0.35;}
	.st1{fill:url(#SVGID_1_);}
	.st2{fill:#FFFFFF;}
</style>
<g class="st0">
	<path d="M196.6,356.72c-5.4,0-63.14-1.28-69.87-2.04c-6.73-0.77-24.03-4.28-28.05-5.42c-4.02-1.15-47.84-49.2-54.83-56.28
		c-6.99-7.08-5.43-6.51-2.68-8.23s12.74-2.04,14.7-2.3c1.96-0.26,0.07-2.3-3.51-3.06s-3.71-1.47-5.1-2.49
		c-1.4-1.02,1.24-1.28,0.43-1.98c-0.8-0.7-3.65-1.02-5.28-1.66c-1.63-0.64-0.49-1.21-2.93-2.36c-2.44-1.15-11.55-2.81-16.81-7.59
		s26.99-6.89,59.1-6.76c31.82-0.13,68.9,1.98,74.61,6.76s0.41,6.44,0.6,7.59c0.19,1.15,2.65,1.72,2.48,2.36
		c-0.17,0.64-2.28,0.96-1.47,1.66c0.8,0.7,4.02,0.96,4.97,1.98c0.95,1.02,2.43,1.72,0.6,2.49c-1.82,0.77,0.97,2.81,3.51,3.06
		c2.54,0.26,13.26,0.57,19.97,2.3c6.7,1.72,6.94,1.15,16.19,8.23c9.24,7.08,75.58,55.13,74.19,56.28
		c-1.38,1.15-10.64,4.66-15.62,5.42C256.81,355.44,202,356.72,196.6,356.72z"/>
</g>
<g>
	
		<radialGradient id="SVGID_1_" cx="187.6422" cy="180" r="137.3238" gradientTransform="matrix(1 0 0 2 0 -180)" gradientUnits="userSpaceOnUse">
		<stop  offset="0" style="stop-color:#0081B2"/>
		<stop  offset="1" style="stop-color:#004482"/>
	</radialGradient>
	<path class="st1" d="M187.64,353.72c-6.47,0-61.45-4.7-66.28-6.93c-5.02-2.32-17.33-13.6-20.35-17.72
		c-1.31-8.6,4.32-102.21,7.37-152.8c1.27-21.06,2.27-37.69,2.57-44.3c0.95-21.08,1.64-21.91,4.56-25.41
		c0.47-0.57,0.99-1.19,1.56-1.92c3.07-3.95,9.69-5.53,13.25-6.38c1.25-0.3,2.15-0.51,2.83-0.79c1.22-0.49,2.8-1.75,3.47-4.99
		c0.68-3.3,0.19-8.06-2.46-10.72c-1.22-1.22-1.28-2.07-1.31-4.57c-0.01-0.71-0.02-1.47-0.07-2.27c-0.06-0.89,0.23-1.32,0.94-2.29
		c0.75-1.02,1.77-2.43,1.77-4.5c0-2.58-1.43-4.23-2.48-5.44c-0.5-0.58-0.93-1.07-1.11-1.53c-0.1-0.25-0.03-0.77,0.1-1.59
		c0.24-1.52,0.56-3.61-0.22-6.43c-0.4-1.46-1.24-2.85-2.21-4.47c-2.36-3.93-5.93-9.87-5.78-21.48
		c0.18-13.73,30.89-20.92,61.12-20.92c0.9,0,1.8,0.01,2.7,0.02c0.98-0.01,1.88-0.02,2.78-0.02c30.23,0,60.94,7.19,61.12,20.92
		c0.15,11.6-3.42,17.54-5.78,21.48c-0.97,1.62-1.81,3.01-2.21,4.47c-0.78,2.82-0.46,4.91-0.22,6.43c0.13,0.82,0.2,1.33,0.1,1.59
		c-0.18,0.46-0.61,0.95-1.11,1.53c-1.05,1.21-2.48,2.86-2.48,5.44c0,2.08,1.02,3.48,1.77,4.5c0.71,0.97,0.99,1.4,0.94,2.29
		c-0.05,0.8-0.06,1.56-0.07,2.27c-0.03,2.51-0.09,3.36-1.31,4.57c-2.66,2.66-3.14,7.42-2.46,10.72c0.67,3.25,2.26,4.51,3.47,4.99
		c0.68,0.27,1.58,0.49,2.83,0.79c3.56,0.85,10.17,2.43,13.25,6.38c0.57,0.74,1.09,1.36,1.56,1.92c2.92,3.5,3.61,4.33,4.56,25.41
		c0.3,6.61,1.3,23.23,2.56,44.27c3.04,50.59,8.68,144.23,7.37,152.83c-3.02,4.12-15.33,15.41-20.35,17.72
		C249.09,349.02,194.11,353.72,187.64,353.72z"/>
	<path class="st2" d="M190.38,9.28c31.91,0,57.98,8.06,58.11,17.96c0.14,10.75-3.03,16.03-5.35,19.89
		c-1.04,1.73-2.02,3.36-2.53,5.21c-0.96,3.45-0.54,6.11-0.29,7.7c0.01,0.08,0.03,0.18,0.04,0.27c-0.12,0.14-0.25,0.29-0.36,0.42
		c-1.2,1.39-3.21,3.71-3.21,7.4c0,3.05,1.47,5.07,2.35,6.27c0.11,0.16,0.26,0.36,0.36,0.5c-0.05,0.84-0.06,1.59-0.06,2.26
		c-0.02,2.08-0.05,2.11-0.43,2.49c-3.46,3.46-4.14,9.25-3.28,13.44c0.98,4.79,3.74,6.55,5.3,7.18c0.89,0.36,1.88,0.59,3.25,0.92
		c3.2,0.76,9.15,2.18,11.58,5.3c0.61,0.79,1.15,1.43,1.63,2c1.52,1.83,1.84,2.21,2.29,4.28c0.65,3,1.09,8.42,1.58,19.34
		c0.3,6.64,1.3,23.28,2.57,44.34c2.95,49.03,8.37,139.11,7.46,151.48c-3.38,4.13-14.32,14.07-18.63,16.11
		c-6.21,2.25-58.97,6.68-65.09,6.68s-58.87-4.43-65.09-6.68c-4.31-2.04-15.26-11.98-18.63-16.11
		c-0.91-12.36,4.51-102.45,7.46-151.48c1.27-21.07,2.27-37.71,2.57-44.34c0.49-10.92,0.94-16.34,1.58-19.34
		c0.45-2.08,0.76-2.46,2.29-4.28c0.48-0.57,1.01-1.22,1.63-2c2.42-3.12,8.38-4.54,11.58-5.3c1.37-0.33,2.36-0.56,3.25-0.92
		c1.56-0.62,4.31-2.38,5.3-7.18c0.86-4.2,0.18-9.98-3.28-13.44c-0.38-0.38-0.41-0.41-0.43-2.49c-0.01-0.67-0.02-1.41-0.06-2.26
		c0.1-0.14,0.24-0.34,0.36-0.5c0.88-1.2,2.35-3.22,2.35-6.27c0-3.69-2.01-6.02-3.21-7.4c-0.11-0.13-0.24-0.28-0.36-0.42
		c0.01-0.09,0.03-0.19,0.04-0.27c0.25-1.59,0.66-4.25-0.29-7.7c-0.51-1.85-1.49-3.48-2.53-5.21c-2.32-3.86-5.5-9.14-5.35-19.89
		c0.13-9.9,26.2-17.96,58.12-17.96c0.89,0,1.77,0.01,2.65,0.02l0.08,0l0.08,0C188.61,9.29,189.5,9.28,190.38,9.28L190.38,9.28
		 M190.38,3.28c-0.91,0-1.83,0.01-2.74,0.02c-0.91-0.01-1.82-0.02-2.74-0.02c-31.17,0-63.9,7.48-64.12,23.88
		c-0.23,16.88,6.98,22.74,8.1,26.79c1.13,4.05-0.68,6.08,0.23,8.33c0.9,2.25,3.38,3.38,3.38,5.85c0,2.48-2.93,3.38-2.7,6.98
		c0.23,3.6-0.45,6.08,2.25,8.78s2.25,9.9,0,10.81c-2.25,0.9-12.61,2.03-17.33,8.1c-4.73,6.08-5.63,4.05-6.75,29.04
		s-12.38,194.49-9.68,198.54c2.7,4.05,15.98,16.43,21.84,19.13c5.85,2.7,62.13,7.2,67.53,7.2s61.68-4.5,67.53-7.2
		c5.85-2.7,19.13-15.08,21.84-19.13s-8.55-173.56-9.68-198.54c-1.13-24.99-2.03-22.96-6.75-29.04c-4.73-6.08-15.08-7.2-17.33-8.1
		c-2.25-0.9-2.7-8.1,0-10.81s2.03-5.18,2.25-8.78c0.23-3.6-2.7-4.5-2.7-6.98c0-2.48,2.48-3.6,3.38-5.85c0.9-2.25-0.9-4.28,0.23-8.33
		c1.13-4.05,8.33-9.9,8.1-26.79C254.28,10.76,221.56,3.28,190.38,3.28L190.38,3.28z"/>
</g>
<g>
	<path d="M206.03,105.61c10.42,5.89,15.63,14.51,15.63,25.83c0,11.33-3.4,20.39-10.2,27.19c-6.35,6.35-15.19,9.52-26.51,9.52
		c-10.88,0-19.27-2.94-25.15-8.84c-7.25-7.24-10.88-15.86-10.88-25.83v-6.8h15.63v6.12c0,7.25,1.81,12.69,5.44,16.31
		c3.62,3.63,8.16,5.44,13.59,5.44c7.24,0,12.68-1.81,16.31-5.44c4.08-4.08,6.12-9.28,6.12-15.63c0-6.8-3.18-12.23-9.52-16.31
		c-11.33-7.24-21.98-14.95-31.95-23.11c-7.25-5.88-11.11-13.82-11.55-23.79c-0.46-9.96,2.94-18.35,10.2-25.15
		c6.8-6.34,14.27-9.52,22.43-9.52c9.96,0,17.67,2.72,23.11,8.16c6.8,6.8,9.96,16.31,9.52,28.55h-15.63
		c0.9-7.7-0.91-13.82-5.44-18.35c-3.18-3.17-7.03-4.76-11.55-4.76c-4.54,0-8.39,1.59-11.56,4.76c-4.08,4.08-6.12,8.84-6.12,14.27
		c0,5.89,3.17,11.55,9.52,16.99C187,93.38,196.52,100.17,206.03,105.61z"/>
	<path d="M162.53,233.91v99.23h-13.59V200.6h21.75l14.27,86.32h1.36l14.27-86.32h21.75v132.54h-13.59v-99.23h-1.36l-16.31,99.23
		H180.2l-16.31-99.23H162.53z"/>
</g>
<g>
	<path class="st2" d="M208.03,103.61c10.42,5.89,15.63,14.51,15.63,25.83c0,11.33-3.4,20.39-10.2,27.19
		c-6.35,6.35-15.19,9.52-26.51,9.52c-10.88,0-19.26-2.94-25.15-8.84c-7.25-7.24-10.88-15.86-10.88-25.83v-6.8h15.63v6.12
		c0,7.25,1.81,12.69,5.44,16.31c3.62,3.63,8.16,5.44,13.59,5.44c7.24,0,12.68-1.81,16.31-5.44c4.08-4.08,6.12-9.28,6.12-15.63
		c0-6.8-3.18-12.23-9.52-16.31c-11.33-7.24-21.98-14.95-31.95-23.11c-7.25-5.88-11.11-13.82-11.55-23.79
		c-0.46-9.96,2.94-18.35,10.2-25.15c6.8-6.34,14.27-9.52,22.43-9.52c9.96,0,17.67,2.72,23.11,8.16c6.8,6.8,9.96,16.31,9.52,28.55
		h-15.63c0.9-7.7-0.91-13.82-5.44-18.35c-3.18-3.17-7.03-4.76-11.55-4.76c-4.54,0-8.39,1.59-11.55,4.76
		c-4.08,4.08-6.12,8.84-6.12,14.27c0,5.89,3.17,11.55,9.52,16.99C189,91.38,198.52,98.17,208.03,103.61z"/>
	<path class="st2" d="M164.53,231.91v99.23h-13.59V198.6h21.75l14.27,86.32h1.36l14.27-86.32h21.75v132.54h-13.59v-99.23h-1.36
		l-16.31,99.23h-10.88l-16.31-99.23H164.53z"/>
</g>
</svg>
