<?xml version="1.0" encoding="utf-8"?>
<!-- Generator: Adobe Illustrator 23.0.1, SVG Export Plug-In . SVG Version: 6.00 Build 0)  -->
<svg version="1.1" id="Layer_1" xmlns="http://www.w3.org/2000/svg" xmlns:xlink="http://www.w3.org/1999/xlink" x="0px" y="0px"
	 viewBox="0 0 6000 1000" style="enable-background:new 0 0 6000 1000;" xml:space="preserve">
<style type="text/css">
	.st0{opacity:0.35;}
</style>
<g>
	<path d="M603.52,372.82c-13.6-46.4-32.8-109.6-110.4-109.6c-57.6,0-86.4,37.6-86.4,89.6c0,67.2,48.8,93.6,100.8,120
		c35.2,17.6,133.6,52,133.6,152c0,83.2-64,143.2-164.8,144.8c-32.8-1.6-60.8-6.4-80.8-12.8c-19.2-6.4-29.6-12-34.4-15.2
		c-6.4-20.8-14.4-78.4-19.2-126.4h12.8c12.8,43.2,47.2,133.6,140.8,133.6c61.6,0,99.2-33.6,99.2-104c0-80.8-65.6-108-108-132
		c-7.2-4-124.8-41.6-124.8-139.2c0-66.4,54.4-128.8,148.8-128.8c26.4,0,49.6,2.4,93.6,16.8c3.2,27.2,7.2,56.8,12.8,111.2H603.52z"/>
	<path d="M1025.12,746.42c45.6-6.4,62.4-11.2,62.4-30.4c0-20.8-24-83.2-53.6-156.8h-184.8c-8,15.2-48,123.2-48,148
		c0,27.2,21.6,32,66.4,39.2v11.2h-181.6v-11.2c56-11.2,66.4-18.4,96-90.4l173.6-407.2l9.6-4l53.6,148c36.8,100,72.8,200,103.2,276.8
		c24,59.2,30.4,68,86.4,76.8v11.2h-183.2V746.42z M947.52,319.22c-32,71.2-63.2,147.2-88.8,214.4h168l-77.6-214.4H947.52z"/>
	<path d="M1629.91,632.82c-5.6,26.4-23.2,89.6-28.8,124.8h-348v-11.2c68-3.2,73.6-16.8,73.6-84v-314.4c0-62.4-5.6-76-76.8-80v-11.2
		h198.4v11.2c-72.8,4-80,17.6-80,80v303.2c0,84.8,19.2,87.2,100.8,87.2c48,0,86.4-9.6,104.8-28.8c10.4-14.4,28.8-41.6,41.6-76.8
		H1629.91z"/>
	<path d="M1777.9,746.42c80-4,85.6-17.6,85.6-78.4v-392h-49.6c-104.8,0-115.2,17.6-139.2,101.6h-12.8c4.8-47.2,7.2-95.2,8.8-140
		h12.8c5.6,9.6,11.2,14.4,17.6,16.8c6.4,2.4,14.4,2.4,25.6,2.4h322.4c20.8,0,26.4-4,37.6-19.2l13.6,0.8c-1.6,37.6,3.2,88,7.2,136
		l-13.6,3.2c-19.2-90.4-49.6-101.6-117.6-101.6h-71.2v392c0,60.8,5.6,74.4,88.8,78.4v11.2h-216V746.42z"/>
	<path d="M2152.29,746.42c75.2-4,80.8-17.6,80.8-79.2v-313.6c0-68.8-6.4-82.4-72.8-85.6v-11.2h348c0,28,4,75.2,7.2,122.4l-13.6,2.4
		c-16.8-81.6-32-105.6-128.8-105.6h-75.2c-21.6,0-22.4,1.6-22.4,22.4v187.2h93.6c63.2,0,78.4-8,90.4-61.6h13.6v148.8h-13.6
		c-12.8-61.6-29.6-64.8-90.4-64.8h-93.6v156c0,75.2,32.8,75.2,99.2,75.2c48.8,0,96.8-0.8,122.4-30.4c12.8-15.2,32.8-43.2,44.8-79.2
		h13.6c-7.2,29.6-22.4,100.8-28.8,128h-374.4V746.42z"/>
	<path d="M2604.28,746.42c72.8-3.2,79.2-16.8,79.2-80v-318.4c0-62.4-6.4-76-72-79.2v-12h232.8c96.8,0,174.4,16,223.2,63.2
		c42.4,40,64.8,96,64.8,165.6c0,212-184,272-344,272h-184V746.42z M2725.08,664.02c0,61.6,12.8,74.4,92.8,74.4
		c196,0,261.6-127.2,261.6-233.6c0-91.2-36.8-173.6-112-208.8c-36-13.6-87.2-23.2-164.8-23.2c-40.8,0-63.2,0.8-70.4,1.6
		c-4,0-7.2,0.8-7.2,15.2V664.02z"/>
	<path d="M3378.67,256.82h101.6l211.2,424l212-424h115.2v11.2c-74.4,7.2-81.6,15.2-78.4,95.2l5.6,284c2.4,82.4,5.6,92.8,80.8,99.2
		v11.2h-196v-11.2c70.4-5.6,72.8-16,72-99.2l-3.2-336h-3.2l-216.8,437.6h-7.2l-196.8-410.4h-1.6l-10.4,216
		c-2.4,37.6-3.2,64.8-3.2,86.4c0,76.8,8,98.4,82.4,105.6v11.2h-192.8v-11.2c49.6-4,66.4-17.6,72.8-49.6c5.6-24,12-72,17.6-154.4
		l11.2-146.4c0.8-21.6,1.6-39.2,1.6-53.6c0-56.8-13.6-67.2-74.4-74.4V256.82z"/>
	<path d="M4076.27,746.42c75.2-4,80.8-17.6,80.8-79.2v-313.6c0-68.8-6.4-82.4-72.8-85.6v-11.2h348c0,28,4,75.2,7.2,122.4l-13.6,2.4
		c-16.8-81.6-32-105.6-128.8-105.6h-75.2c-21.6,0-22.4,1.6-22.4,22.4v187.2h93.6c63.2,0,78.4-8,90.4-61.6h13.6v148.8h-13.6
		c-12.8-61.6-29.6-64.8-90.4-64.8h-93.6v156c0,75.2,32.8,75.2,99.2,75.2c48.8,0,96.8-0.8,122.4-30.4c12.8-15.2,32.8-43.2,44.8-79.2
		h13.6c-7.2,29.6-22.4,100.8-28.8,128h-374.4V746.42z"/>
	<path d="M4528.26,746.42c72.8-3.2,79.2-16.8,79.2-80v-318.4c0-62.4-6.4-76-72-79.2v-12h232.8c96.8,0,174.4,16,223.2,63.2
		c42.4,40,64.8,96,64.8,165.6c0,212-184,272-344,272h-184V746.42z M4649.06,664.02c0,61.6,12.8,74.4,92.8,74.4
		c196,0,261.6-127.2,261.6-233.6c0-91.2-36.8-173.6-112-208.8c-36-13.6-87.2-23.2-164.8-23.2c-40.8,0-63.2,0.8-70.4,1.6
		c-4,0-7.2,0.8-7.2,15.2V664.02z"/>
	<path d="M5122.66,746.42c69.6-3.2,76-16.8,76-80v-318.4c0-62.4-6.4-76-76-80v-11.2h193.6v11.2c-68.8,4-76,17.6-76,80v318.4
		c0,63.2,7.2,76.8,76,80v11.2h-193.6V746.42z"/>
	<path d="M5698.65,746.42c45.6-6.4,62.4-11.2,62.4-30.4c0-20.8-24-83.2-53.6-156.8h-184.8c-8,15.2-48,123.2-48,148
		c0,27.2,21.6,32,66.4,39.2v11.2h-181.6v-11.2c56-11.2,66.4-18.4,96-90.4l173.6-407.2l9.6-4l53.6,148c36.8,100,72.8,200,103.2,276.8
		c24,59.2,30.4,68,86.4,76.8v11.2h-183.2V746.42z M5621.05,319.22c-32,71.2-63.2,147.2-88.8,214.4h168l-77.6-214.4H5621.05z"/>
</g>
<g class="st0">
	<path d="M363.07,651.38c-42.59-12.81-101.29-30.26-178.89-30.26c-57.6,0-62.91,10.38-30.41,24.74
		c41.99,18.55,107.29,25.84,175.78,33.13c46.2,4.86,166.09,14.36,228.58,41.97c51.99,22.97,25.48,39.54-74.32,39.98
		c-33.8-0.44-64.8-1.77-88.8-3.53c-23.2-1.77-37.1-3.31-43.9-4.2c-19.4-5.74-63.39-21.65-98.18-34.9h12.8
		c39.79,11.93,130.68,36.89,224.28,36.89c61.6,0,78.2-9.28,34.21-28.71c-50.49-22.31-133.09-29.82-190.48-36.44
		c-9.7-1.1-150.79-11.49-211.78-38.43c-41.49-18.33-26.08-35.56,68.32-35.56c26.4,0,51.1,0.66,104.1,4.64
		c20.2,7.51,42.69,15.68,82.29,30.7H363.07z"/>
	<path d="M1018.12,754.52c41.6-1.77,55.4-3.09,43.4-8.39c-13-5.74-75.99-22.97-151.58-43.29h-184.8c1.5,4.2,28.98,34.01,44.48,40.86
		c17,7.51,41.6,8.83,90.9,10.82l7,3.09h-181.6l-7-3.09c49-3.09,54.9-5.08,39.51-24.96l-80.85-112.42l7.1-1.1l146.08,40.86
		c99.29,27.61,197.77,55.22,276.16,76.42c60.99,16.34,72.89,18.77,134.39,21.2l7,3.09h-183.2L1018.12,754.52z M673.57,636.58
		c12.49,19.66,28.78,40.64,45.17,59.19h168l-211.57-59.19H673.57z"/>
	<path d="M1551.93,723.16c10.9,7.29,32.79,24.74,49.18,34.46h-348l-7-3.09c66-0.88,63.1-4.64,21.11-23.19l-196.46-86.8
		c-38.99-17.23-53.09-20.98-126.79-22.09l-7-3.09h198.4l7,3.09c-70.3,1.1-69,4.86-30.01,22.09l189.46,83.71
		c52.99,23.41,73.69,24.08,155.29,24.08c48,0,80.4-2.65,86.8-7.95c1.4-3.98,2.8-11.49-6.39-21.2H1551.93z"/>
	<path d="M1770.9,754.52c77.5-1.1,74.6-4.86,36.61-21.65l-244.95-108.23h-49.6c-104.8,0-104.2,4.86-75.71,28.05h-12.8
		c-24.69-13.03-52.29-26.28-78.68-38.65h12.8c11.6,2.65,20.2,3.98,28.1,4.64c7.9,0.66,15.9,0.66,27.1,0.66h322.4
		c20.8,0,23.9-1.1,25.6-5.3l14.1,0.22c21.9,10.38,58.19,24.3,92.18,37.55l-11.6,0.88c-75.69-24.96-113.09-28.05-181.09-28.05h-71.2
		l244.95,108.23c37.99,16.79,52.09,20.54,137.79,21.65l7,3.09h-216L1770.9,754.52z"/>
	<path d="M2145.29,754.52c72.7-1.1,69.8-4.86,31.31-21.87l-195.96-86.58c-42.99-19-57.89-22.75-126.29-23.63l-7-3.09h348
		c17.5,7.73,50.99,20.76,83.68,33.79l-12.1,0.66c-67.79-22.53-97.99-29.16-194.79-29.16h-75.2c-21.6,0-21.4,0.44-8.4,6.18
		l116.98,51.68h93.6c63.2,0,73.4-2.21,51.91-17.01h13.6l92.98,41.08h-13.6c-51.29-17.01-70.09-17.89-130.89-17.89h-93.6l97.48,43.07
		c46.99,20.76,79.79,20.76,146.19,20.76c48.8,0,96.3-0.22,103.4-8.39c3.3-4.2,5.81-11.93-4.69-21.87h13.6
		c11.3,8.17,40.59,27.83,51.18,35.34h-374.4L2145.29,754.52z"/>
	<path d="M2597.29,754.52c70.8-0.88,68.7-4.64,29.21-22.09l-198.96-87.91c-38.99-17.23-53.89-20.98-121.49-21.87l-7.5-3.31h232.8
		c96.8,0,184.4,4.42,262.69,17.45c67.4,11.04,124.79,26.5,168.28,45.72c132.47,58.53-14.04,75.1-174.04,75.1h-184L2597.29,754.52z
		 M2666.6,731.77c38.49,17.01,59.29,20.54,139.29,20.54c196,0,182.12-35.12,115.63-64.49c-56.99-25.18-145.28-47.93-242.47-57.65
		c-44.5-3.75-101.7-6.41-179.3-6.41c-40.8,0-62.7,0.22-69.4,0.44c-4,0-6.7,0.22,2.3,4.2L2666.6,731.77z"/>
	<path d="M3065.74,619.35h101.6l476.15,117.06l-52.94-117.06h115.2l7,3.09c-69.9,1.99-72.1,4.2-18.91,26.28l183.06,78.41
		c53.89,22.75,63.59,25.62,142.79,27.39l7,3.09h-196l-7-3.09c66.9-1.55,62.8-4.42,10.01-27.39l-213.16-92.77h-3.2l56.64,120.82h-7.2
		l-453.25-113.31h-1.6l124.57,59.64c21.1,10.38,37.29,17.89,50.79,23.85c47.99,21.2,69.49,27.17,148.39,29.16l7,3.09h-192.8l-7-3.09
		c47.1-1.1,55.4-4.86,41.81-13.69c-9.4-6.63-32.99-19.88-78.88-42.63l-80.28-40.42c-12.7-5.96-22.9-10.82-31.89-14.8
		c-35.49-15.68-55.59-18.55-120.89-20.54L3065.74,619.35z"/>
	<path d="M4069.27,754.52c72.7-1.1,69.8-4.86,31.31-21.87l-195.96-86.58c-42.99-19-57.89-22.75-126.29-23.63l-7-3.09h348
		c17.5,7.73,50.99,20.76,83.68,33.79l-12.1,0.66c-67.79-22.53-97.99-29.16-194.79-29.16h-75.2c-21.6,0-21.4,0.44-8.4,6.18
		l116.98,51.68h93.6c63.2,0,73.4-2.21,51.91-17.01h13.6l92.98,41.08h-13.6c-51.29-17.01-70.09-17.89-130.89-17.89h-93.6l97.48,43.07
		c46.99,20.76,79.79,20.76,146.19,20.76c48.8,0,96.3-0.22,103.4-8.39c3.3-4.2,5.81-11.93-4.69-21.87h13.6
		c11.3,8.17,40.59,27.83,51.18,35.34h-374.4L4069.27,754.52z"/>
	<path d="M4521.26,754.52c70.8-0.88,68.7-4.64,29.21-22.09l-198.96-87.91c-38.99-17.23-53.89-20.98-121.49-21.87l-7.5-3.31h232.8
		c96.8,0,184.4,4.42,262.69,17.45c67.39,11.04,124.79,26.5,168.28,45.72c132.47,58.53-14.04,75.1-174.04,75.1h-184L4521.26,754.52z
		 M4590.57,731.77c38.49,17.01,59.29,20.54,139.29,20.54c196,0,182.12-35.12,115.63-64.49c-56.99-25.18-145.28-47.93-242.47-57.65
		c-44.5-3.75-101.7-6.41-179.3-6.41c-40.8,0-62.7,0.22-69.4,0.44c-4,0-6.7,0.22,2.3,4.2L4590.57,731.77z"/>
	<path d="M5115.66,754.52c67.6-0.88,65.5-4.64,26.01-22.09l-198.96-87.91c-38.99-17.23-53.89-20.98-125.99-22.09l-7-3.09h193.6
		l7,3.09c-66.3,1.1-65,4.86-26.01,22.09l198.96,87.91c39.49,17.45,55.19,21.2,125.99,22.09l7,3.09h-193.6L5115.66,754.52z"/>
	<path d="M5691.65,754.52c41.6-1.77,55.4-3.09,43.4-8.39c-13-5.74-75.99-22.97-151.58-43.29h-184.8c1.5,4.2,28.98,34.01,44.48,40.86
		c17,7.51,41.6,8.83,90.89,10.82l7,3.09h-181.6l-7-3.09c49-3.09,54.9-5.08,39.51-24.96l-80.85-112.42l7.1-1.1l146.08,40.86
		c99.29,27.61,197.77,55.22,276.16,76.42c60.99,16.34,72.89,18.77,134.39,21.2l7,3.09h-183.2L5691.65,754.52z M5347.11,636.58
		c12.49,19.66,28.78,40.64,45.17,59.19h168l-211.57-59.19H5347.11z"/>
</g>
</svg>
